<?xml version="1.0" encoding="UTF-8"?>
<svg width="512" height="512" viewBox="0 0 512 512" fill="none" xmlns="http://www.w3.org/2000/svg">
  <circle cx="256" cy="256" r="248" stroke="#4F46E5" stroke-width="16"/>
  <path d="M256 128C256 119.163 263.163 112 272 112H368C376.837 112 384 119.163 384 128V384C384 392.837 376.837 400 368 400H272C263.163 400 256 392.837 256 384V128Z" fill="#4F46E5"/>
  <path d="M128 256C128 247.163 135.163 240 144 240H240C248.837 240 256 247.163 256 256V384C256 392.837 248.837 400 240 400H144C135.163 400 128 392.837 128 384V256Z" fill="#4F46E5"/>
</svg>